<?xml version="1.0" encoding="utf-8"?>
<!-- Generator: Adobe Illustrator 21.1.0, SVG Export Plug-In . SVG Version: 6.00 Build 0)  -->
<svg version="1.1" id="Layer_1" xmlns="http://www.w3.org/2000/svg" xmlns:xlink="http://www.w3.org/1999/xlink" x="0px" y="0px"
	 viewBox="0 0 100 100" style="enable-background:new 0 0 100 100;" xml:space="preserve">
<style type="text/css">
	.st0{fill:none;stroke:#00FFA2;stroke-width:3.0655;stroke-miterlimit:10;}
</style>
<g>
	<rect x="2.4" y="2.3" class="st0" width="95.4" height="95.4"/>
	<circle class="st0" cx="50.1" cy="50" r="37.7"/>
	<path class="st0" d="M28,48.7"/>
	<path class="st0" d="M48.4,60.4c-5.7-0.9-9.7-6.3-8.8-12s6.3-9.7,12-8.8c5.7,0.9,9.7,6.3,8.8,12"/>
	<path class="st0" d="M56.5,65.8c-8.7,3.5-18.6-0.7-22.2-9.4c-3.5-8.7,0.7-18.6,9.4-22.2s18.6,0.7,22.2,9.4"/>
	<path class="st0" d="M27.1,58.8c-4.8-12.7,1.5-26.9,14.2-31.7S68.2,28.6,73,41.2S71.5,68.1,58.9,73"/>
	<path class="st0" d="M19.1,45.1C21.8,28,37.8,16.3,55,19s28.8,18.8,26.1,35.9S62.3,83.8,45.2,81"/>
	<line class="st0" x1="69.2" y1="82.4" x2="78.3" y2="97.7"/>
	<line class="st0" x1="21.9" y1="2.3" x2="30.9" y2="17.6"/>
	<line class="st0" x1="82.7" y1="31.2" x2="98" y2="22.2"/>
	<line class="st0" x1="2.6" y1="78.6" x2="17.9" y2="69.5"/>
</g>
</svg>
